<svg width="327" height="128" viewBox="0 0 327 128" fill="none" xmlns="http://www.w3.org/2000/svg">
<rect x="0.5" y="0.5" width="99" height="99" rx="19.5" fill="#169A00" stroke="black"/>
<circle cx="84" cy="77" r="50" fill="#0C3B00"/>
<line x1="84.5" y1="26.995" x2="85.5" y2="127.031" stroke="black"/>
<line x1="106.233" y1="39.2526" x2="85.4315" y2="74.7822" stroke="black"/>
<line x1="106.233" y1="67.2526" x2="85.4315" y2="102.782" stroke="black"/>
<path d="M151.016 84.0181V42.5965H156.032V79.5685H175.286V84.0181H151.016ZM182.406 84.0181V52.9519H187.179V84.0181H182.406ZM184.833 47.7742C183.902 47.7742 183.1 47.4573 182.426 46.8236C181.765 46.1899 181.435 45.428 181.435 44.5381C181.435 43.6482 181.765 42.8864 182.426 42.2527C183.1 41.6189 183.902 41.3021 184.833 41.3021C185.763 41.3021 186.559 41.6189 187.219 42.2527C187.894 42.8864 188.231 43.6482 188.231 44.5381C188.231 45.428 187.894 46.1899 187.219 46.8236C186.559 47.4573 185.763 47.7742 184.833 47.7742ZM208.946 84.6653C205.953 84.6653 203.371 84.0046 201.2 82.6832C199.043 81.3483 197.378 79.4876 196.204 77.101C195.045 74.7009 194.465 71.9098 194.465 68.7277C194.465 65.5456 195.045 62.741 196.204 60.3139C197.378 57.8734 199.009 55.9722 201.099 54.6104C203.202 53.235 205.656 52.5474 208.461 52.5474C210.079 52.5474 211.677 52.817 213.254 53.3564C214.832 53.8957 216.268 54.7722 217.562 55.9857C218.857 57.1857 219.888 58.7768 220.657 60.7589C221.425 62.741 221.81 65.1815 221.81 68.0805V70.103H197.863V65.977H216.956C216.956 64.2242 216.605 62.6601 215.904 61.2847C215.216 59.9094 214.232 58.824 212.951 58.0285C211.684 57.2329 210.187 56.8352 208.461 56.8352C206.56 56.8352 204.915 57.3071 203.526 58.2509C202.151 59.1813 201.092 60.3948 200.351 61.8915C199.609 63.3882 199.238 64.9927 199.238 66.7051V69.4558C199.238 71.8019 199.643 73.7908 200.452 75.4223C201.274 77.0403 202.414 78.2741 203.87 79.1235C205.326 79.9595 207.018 80.3775 208.946 80.3775C210.2 80.3775 211.333 80.2022 212.344 79.8516C213.369 79.4876 214.252 78.9482 214.994 78.2336C215.735 77.5055 216.308 76.6021 216.713 75.5234L221.324 76.8178C220.839 78.3819 220.023 79.7573 218.877 80.9438C217.731 82.1169 216.315 83.0338 214.63 83.6945C212.944 84.3417 211.05 84.6653 208.946 84.6653ZM229.718 84.0181V42.5965H234.491V57.8869H234.896C235.246 57.3475 235.732 56.6599 236.352 55.8239C236.986 54.9744 237.889 54.2193 239.062 53.5586C240.249 52.8845 241.853 52.5474 243.876 52.5474C246.491 52.5474 248.797 53.2013 250.793 54.5092C252.788 55.8171 254.346 57.6711 255.465 60.0712C256.584 62.4713 257.144 65.3028 257.144 68.5659C257.144 71.8559 256.584 74.7076 255.465 77.1212C254.346 79.5213 252.795 81.382 250.813 82.7034C248.831 84.0113 246.545 84.6653 243.957 84.6653C241.961 84.6653 240.363 84.3349 239.163 83.6742C237.963 83.0001 237.039 82.2382 236.392 81.3888C235.745 80.5258 235.246 79.8112 234.896 79.2449H234.329V84.0181H229.718ZM234.41 68.485C234.41 70.8311 234.754 72.9008 235.442 74.6942C236.129 76.474 237.134 77.8696 238.455 78.8808C239.777 79.8786 241.395 80.3775 243.309 80.3775C245.305 80.3775 246.97 79.8516 248.305 78.7999C249.653 77.7347 250.665 76.3055 251.339 74.5121C252.027 72.7053 252.37 70.6963 252.37 68.485C252.37 66.3006 252.033 64.332 251.359 62.5792C250.698 60.8128 249.694 59.4173 248.345 58.3925C247.011 57.3543 245.332 56.8352 243.309 56.8352C241.368 56.8352 239.736 57.3273 238.415 58.3116C237.093 59.2824 236.096 60.6443 235.421 62.3971C234.747 64.1365 234.41 66.1658 234.41 68.485ZM277.47 84.6653C274.477 84.6653 271.895 84.0046 269.724 82.6832C267.566 81.3483 265.901 79.4876 264.728 77.101C263.568 74.7009 262.989 71.9098 262.989 68.7277C262.989 65.5456 263.568 62.741 264.728 60.3139C265.901 57.8734 267.533 55.9722 269.623 54.6104C271.726 53.235 274.18 52.5474 276.985 52.5474C278.603 52.5474 280.2 52.817 281.778 53.3564C283.356 53.8957 284.792 54.7722 286.086 55.9857C287.38 57.1857 288.412 58.7768 289.181 60.7589C289.949 62.741 290.333 65.1815 290.333 68.0805V70.103H266.387V65.977H285.479C285.479 64.2242 285.129 62.6601 284.428 61.2847C283.74 59.9094 282.756 58.824 281.475 58.0285C280.207 57.2329 278.711 56.8352 276.985 56.8352C275.083 56.8352 273.438 57.3071 272.05 58.2509C270.674 59.1813 269.616 60.3948 268.874 61.8915C268.133 63.3882 267.762 64.9927 267.762 66.7051V69.4558C267.762 71.8019 268.166 73.7908 268.975 75.4223C269.798 77.0403 270.937 78.2741 272.393 79.1235C273.85 79.9595 275.542 80.3775 277.47 80.3775C278.724 80.3775 279.857 80.2022 280.868 79.8516C281.893 79.4876 282.776 78.9482 283.517 78.2336C284.259 77.5055 284.832 76.6021 285.237 75.5234L289.848 76.8178C289.363 78.3819 288.547 79.7573 287.401 80.9438C286.255 82.1169 284.839 83.0338 283.153 83.6945C281.468 84.3417 279.573 84.6653 277.47 84.6653ZM302.367 65.3298V84.0181H297.594V52.9519H302.206V57.806H302.61C303.338 56.2284 304.444 54.9609 305.927 54.0036C307.41 53.0328 309.325 52.5474 311.671 52.5474C313.775 52.5474 315.615 52.9788 317.193 53.8418C318.77 54.6913 319.997 55.9857 320.874 57.7251C321.75 59.451 322.188 61.6353 322.188 64.2781V84.0181H317.415V64.6017C317.415 62.1612 316.781 60.26 315.514 58.8981C314.247 57.5228 312.507 56.8352 310.296 56.8352C308.772 56.8352 307.41 57.1655 306.21 57.8262C305.024 58.4869 304.087 59.451 303.399 60.7184C302.711 61.9859 302.367 63.523 302.367 65.3298Z" fill="white"/>
<circle cx="185.5" cy="43.5" r="4.5" fill="#24FF00"/>
</svg>
