<svg width="192" height="76" viewBox="0 0 192 76" fill="none" xmlns="http://www.w3.org/2000/svg">
<path d="M84.9083 38.2521V37.6134H89.3789V38.0818C89.3789 39.0847 89.6817 39.8322 90.2872 40.3242C90.8928 40.8162 91.7348 41.0622 92.8135 41.0622C93.8826 41.0622 94.701 40.8351 95.2687 40.3809C95.8459 39.9173 96.1345 39.3023 96.1345 38.5359C96.1345 37.7885 95.8459 37.2019 95.2687 36.7761C94.6916 36.3409 93.49 35.8678 91.6639 35.3569C89.5066 34.7419 87.8887 33.9376 86.8101 32.9442C85.7409 31.9507 85.2016 30.6166 85.1922 28.9419C85.1922 27.1158 85.8687 25.6635 87.2217 24.5849C88.5841 23.5062 90.4055 22.9669 92.6857 22.9669C94.9565 22.9669 96.7779 23.5015 98.1498 24.5707C99.5312 25.6398 100.222 27.0969 100.222 28.9419V29.4954H95.8222V29.1122C95.8222 28.2607 95.562 27.5842 95.0417 27.0827C94.5213 26.5718 93.7501 26.3163 92.7283 26.3163C91.6875 26.3163 90.9259 26.5245 90.4433 26.9408C89.9608 27.3476 89.7195 27.8964 89.7195 28.5871C89.7195 29.2589 90.0081 29.7793 90.5853 30.1483C91.1624 30.5173 92.3782 30.9667 94.2327 31.4965C96.3332 32.0832 97.9274 32.8874 99.0155 33.9092C100.104 34.9216 100.648 36.3409 100.648 38.1669C100.648 40.116 99.9333 41.6393 98.5046 42.7369C97.0759 43.825 95.1883 44.369 92.8418 44.369C90.5143 44.369 88.6078 43.8486 87.1223 42.8078C85.6463 41.7671 84.9083 40.2485 84.9083 38.2521ZM102.45 49.8756L102.493 46.7675C102.758 46.8337 103.041 46.8858 103.344 46.9236C103.647 46.9709 103.936 46.9946 104.21 46.9946C104.863 46.9946 105.426 46.7864 105.899 46.3701C106.372 45.9538 106.783 45.1543 107.134 43.9716H107.034L101.428 29.7083H105.856L108.681 37.8263C108.794 38.148 108.884 38.4413 108.95 38.7063C109.016 38.9617 109.078 39.2266 109.135 39.501H109.206C109.272 39.2266 109.338 38.9617 109.404 38.7063C109.471 38.4413 109.56 38.1433 109.674 37.8121L112.484 29.7083H116.458L110.639 45.2915C109.986 47.0135 109.191 48.2577 108.255 49.0241C107.328 49.7999 106.164 50.1879 104.763 50.1879C104.243 50.1879 103.803 50.1642 103.444 50.1169C103.084 50.0696 102.753 49.9892 102.45 49.8756ZM118.005 44V29.7083H122.277L122.348 31.4256H122.405C122.774 30.82 123.332 30.328 124.079 29.9496C124.836 29.5711 125.702 29.3819 126.676 29.3819C128.143 29.3819 129.335 29.7982 130.253 30.6308C131.18 31.454 131.644 32.8732 131.644 34.8885V44H127.202V35.1156C127.202 34.2451 127.017 33.6349 126.648 33.2848C126.279 32.9252 125.754 32.7455 125.073 32.7455C124.514 32.7455 123.994 32.911 123.512 33.2422C123.038 33.5639 122.679 34.0133 122.433 34.5905V44H118.005Z" fill="white"/>
<path d="M134 37.0599V36.6058C134 34.3918 134.681 32.6177 136.043 31.2837C137.415 29.9496 139.194 29.2825 141.38 29.2825C143.565 29.2825 145.264 29.9165 146.475 31.1843C147.695 32.4427 148.306 34.1789 148.306 36.3929V37.8263H136.767V35.2859H143.963V35.0304C143.963 34.2924 143.74 33.6727 143.296 33.1712C142.851 32.6698 142.208 32.419 141.365 32.419C140.4 32.419 139.667 32.7738 139.166 33.4835C138.664 34.1931 138.413 35.1203 138.413 36.2652V37.2161C138.413 38.4555 138.683 39.4301 139.222 40.1397C139.762 40.8493 140.552 41.2041 141.593 41.2041C142.331 41.2041 142.96 41.0338 143.48 40.6932C144.01 40.3431 144.431 39.9268 144.743 39.4443L148.107 41.0622C147.643 42.0556 146.863 42.8599 145.765 43.4749C144.668 44.0899 143.3 44.3974 141.664 44.3974C139.26 44.3974 137.382 43.7351 136.029 42.4105C134.676 41.0764 134 39.2929 134 37.0599ZM150.647 44V29.7083H154.976L155.033 31.3972H155.09C155.411 30.8295 155.846 30.347 156.395 29.9496C156.953 29.5522 157.578 29.3535 158.269 29.3535C158.496 29.3535 158.718 29.3771 158.936 29.4245C159.153 29.4623 159.309 29.5001 159.404 29.538V33.1428C159.234 33.0955 159.04 33.0577 158.822 33.0293C158.614 33.0009 158.387 32.9867 158.141 32.9867C157.497 32.9867 156.901 33.1807 156.353 33.5686C155.813 33.9565 155.406 34.458 155.132 35.073V44H150.647ZM161.15 48.3854L162.611 45.5612C162.971 45.9018 163.567 46.2329 164.4 46.5546C165.232 46.8763 166.108 47.0372 167.025 47.0372C168.009 47.0372 168.842 46.7391 169.523 46.143C170.204 45.547 170.545 44.5961 170.545 43.2904V42.3679C170.157 42.945 169.622 43.4039 168.941 43.7445C168.26 44.0757 167.413 44.2413 166.401 44.2413C164.584 44.2413 163.118 43.5837 162.001 42.2685C160.894 40.9534 160.341 39.2219 160.341 37.0741V36.62C160.341 34.4722 160.885 32.736 161.973 31.4114C163.07 30.0868 164.546 29.4245 166.401 29.4245C167.319 29.4245 168.151 29.6137 168.899 29.9921C169.656 30.3611 170.204 30.839 170.545 31.4256H170.602L170.673 29.7083H174.945V42.9072C174.945 45.2631 174.254 47.0703 172.873 48.3287C171.491 49.5965 169.703 50.2304 167.508 50.2304C166.193 50.2304 164.982 50.0507 163.875 49.6911C162.777 49.3411 161.869 48.9058 161.15 48.3854ZM164.825 37.1877C164.825 38.3325 165.067 39.2645 165.549 39.9836C166.041 40.6932 166.793 41.048 167.806 41.048C168.478 41.048 169.045 40.854 169.509 40.4661C169.982 40.0782 170.318 39.6382 170.517 39.1462V34.5905C170.308 34.0322 169.968 33.5686 169.495 33.1996C169.022 32.8212 168.445 32.6319 167.763 32.6319C166.779 32.6319 166.041 32.9915 165.549 33.7105C165.067 34.4296 164.825 35.3616 164.825 36.5064V37.1877ZM177.556 49.8756L177.599 46.7675C177.864 46.8337 178.147 46.8858 178.45 46.9236C178.753 46.9709 179.041 46.9946 179.316 46.9946C179.969 46.9946 180.532 46.7864 181.005 46.3701C181.478 45.9538 181.889 45.1543 182.239 43.9716H182.14L176.534 29.7083H180.962L183.786 37.8263C183.9 38.148 183.99 38.4413 184.056 38.7063C184.122 38.9617 184.184 39.2266 184.241 39.501H184.312C184.378 39.2266 184.444 38.9617 184.51 38.7063C184.576 38.4413 184.666 38.1433 184.78 37.8121L187.59 29.7083H191.564L185.745 45.2915C185.092 47.0135 184.297 48.2577 183.361 49.0241C182.433 49.7999 181.27 50.1879 179.869 50.1879C179.349 50.1879 178.909 50.1642 178.549 50.1169C178.19 50.0696 177.859 49.9892 177.556 49.8756Z" fill="#0094FF"/>
<g filter="url(#filter0_d_414_28)">
<rect x="4" width="68" height="68" rx="20" fill="#0094FF"/>
<path d="M59.7071 47.2929C60.0976 47.6834 60.0976 48.3166 59.7071 48.7071L53.3431 55.0711C52.9526 55.4616 52.3195 55.4616 51.9289 55.0711C51.5384 54.6805 51.5384 54.0474 51.9289 53.6569L57.5858 48L51.9289 42.3431C51.5384 41.9526 51.5384 41.3195 51.9289 40.9289C52.3195 40.5384 52.9526 40.5384 53.3431 40.9289L59.7071 47.2929ZM16 47H59V49H16V47Z" fill="black"/>
<path d="M15.2929 23.7071C14.9024 23.3166 14.9024 22.6834 15.2929 22.2929L21.6569 15.9289C22.0474 15.5384 22.6805 15.5384 23.0711 15.9289C23.4616 16.3195 23.4616 16.9526 23.0711 17.3431L17.4142 23L23.0711 28.6569C23.4616 29.0474 23.4616 29.6805 23.0711 30.0711C22.6805 30.4616 22.0474 30.4616 21.6569 30.0711L15.2929 23.7071ZM59 24L16 24V22L59 22V24Z" fill="black"/>
</g>
<defs>
<filter id="filter0_d_414_28" x="0" y="0" width="76" height="76" filterUnits="userSpaceOnUse" color-interpolation-filters="sRGB">
<feFlood flood-opacity="0" result="BackgroundImageFix"/>
<feColorMatrix in="SourceAlpha" type="matrix" values="0 0 0 0 0 0 0 0 0 0 0 0 0 0 0 0 0 0 127 0" result="hardAlpha"/>
<feOffset dy="4"/>
<feGaussianBlur stdDeviation="2"/>
<feComposite in2="hardAlpha" operator="out"/>
<feColorMatrix type="matrix" values="0 0 0 0 0 0 0 0 0 0 0 0 0 0 0 0 0 0 0.25 0"/>
<feBlend mode="normal" in2="BackgroundImageFix" result="effect1_dropShadow_414_28"/>
<feBlend mode="normal" in="SourceGraphic" in2="effect1_dropShadow_414_28" result="shape"/>
</filter>
</defs>
</svg>
