<svg width="68" height="68" viewBox="0 0 68 68" fill="none" xmlns="http://www.w3.org/2000/svg">
<rect width="68" height="68" rx="20" fill="#0094FF"/>
<path d="M55.7071 47.2929C56.0976 47.6834 56.0976 48.3166 55.7071 48.7071L49.3431 55.0711C48.9526 55.4616 48.3195 55.4616 47.9289 55.0711C47.5384 54.6805 47.5384 54.0474 47.9289 53.6569L53.5858 48L47.9289 42.3431C47.5384 41.9526 47.5384 41.3195 47.9289 40.9289C48.3195 40.5384 48.9526 40.5384 49.3431 40.9289L55.7071 47.2929ZM12 47H55V49H12V47Z" fill="black"/>
<path d="M11.2929 23.7071C10.9024 23.3166 10.9024 22.6834 11.2929 22.2929L17.6569 15.9289C18.0474 15.5384 18.6805 15.5384 19.0711 15.9289C19.4616 16.3195 19.4616 16.9526 19.0711 17.3431L13.4142 23L19.0711 28.6569C19.4616 29.0474 19.4616 29.6805 19.0711 30.0711C18.6805 30.4616 18.0474 30.4616 17.6569 30.0711L11.2929 23.7071ZM55 24L12 24V22L55 22V24Z" fill="black"/>
</svg>
